<?xml version="1.0" encoding="UTF-8"?>
<svg version="1.1" xmlns="http://www.w3.org/2000/svg" width="498" height="501">
<path d="M0 0 C0.51046875 0.42796875 1.0209375 0.8559375 1.546875 1.296875 C1.546875 1.956875 1.546875 2.616875 1.546875 3.296875 C2.13210938 3.56757812 2.71734375 3.83828125 3.3203125 4.1171875 C21.76314165 13.88865136 32.78551209 37.79568116 38.6875 56.640625 C41.13153512 67.03888352 41.83104827 77.24966343 41.82126999 87.88681984 C41.8202851 90.2573675 41.83347323 92.62748533 41.85025024 94.99797058 C41.89593716 101.72786218 41.92109166 108.45770216 41.92773438 115.18774414 C41.93280742 119.33322482 41.9573359 123.47824724 41.99306107 127.6235714 C42.00271712 129.18170074 42.00527066 130.73989423 41.99988937 132.2980442 C41.95273555 146.61838655 43.75403482 159.76999331 51.375 172.2578125 C52.546875 174.296875 52.546875 174.296875 52.546875 176.296875 C53.206875 176.296875 53.866875 176.296875 54.546875 176.296875 C55.73828125 177.765625 55.73828125 177.765625 57.109375 179.796875 C63.3648625 188.33802139 71.40592989 193.78038347 80.45751953 199.07324219 C82.84688564 200.47257649 85.22623629 201.88819367 87.60546875 203.3046875 C95.80825445 208.17947334 104.03316036 213.01366632 112.30395508 217.7722168 C115.39734877 219.55367597 118.48463634 221.34541266 121.56835938 223.14355469 C123.29331347 224.1490684 125.02139227 225.14921791 126.75 226.1484375 C151.11271531 240.83567444 164.93227713 265.16364284 171.78515625 292.0546875 C178.72435869 321.59077994 170.5973046 348.94012413 155.046875 374.046875 C152.17971426 378.4779416 149.19503429 382.47903389 145.546875 386.296875 C144.886875 386.296875 144.226875 386.296875 143.546875 386.296875 C143.546875 386.956875 143.546875 387.616875 143.546875 388.296875 C142.886875 388.296875 142.226875 388.296875 141.546875 388.296875 C141.546875 388.956875 141.546875 389.616875 141.546875 390.296875 C139.66702432 391.95538843 137.79401362 393.47796828 135.796875 394.984375 C135.20632324 395.43135742 134.61577148 395.87833984 134.00732422 396.33886719 C116.07345248 409.68745566 94.93362462 418.11199921 72.45751953 417.76342773 C70.41486906 417.73427501 68.3748051 417.74292425 66.33203125 417.75585938 C57.71977716 417.7415619 49.83815165 416.61746138 41.546875 414.296875 C40.55888916 414.0277832 39.57090332 413.75869141 38.55297852 413.48144531 C25.40013522 409.74685308 13.27178208 402.07438889 1.67919922 394.98046875 C-4.51126578 391.2102252 -10.82002307 387.65605379 -17.140625 384.109375 C-18.17396973 383.52704102 -19.20731445 382.94470703 -20.27197266 382.34472656 C-41.20591073 370.63664788 -58.6810514 365.0314571 -82.53515625 371.078125 C-88.97226492 372.99520999 -94.19290352 375.77258669 -99.75 379.51171875 C-103.22977559 381.80977864 -106.85462851 383.74601903 -110.52734375 385.71484375 C-113.73624101 387.44996176 -116.90924366 389.23970724 -120.078125 391.046875 C-120.95090088 391.54453369 -120.95090088 391.54453369 -121.84130859 392.05224609 C-125.11532548 393.92803091 -128.36564045 395.83784234 -131.59765625 397.78515625 C-150.93757411 409.41343391 -169.08598856 417.46766135 -192.05053711 417.59204102 C-193.50766806 417.60344367 -194.96476126 417.62370448 -196.42163086 417.65356445 C-210.71772373 417.94565447 -223.7253182 415.62824708 -236.765625 409.484375 C-237.89387695 408.96617187 -237.89387695 408.96617187 -239.04492188 408.4375 C-248.96722214 403.77922318 -258.45083061 397.84784693 -266.453125 390.296875 C-266.453125 389.636875 -266.453125 388.976875 -266.453125 388.296875 C-267.113125 388.296875 -267.773125 388.296875 -268.453125 388.296875 C-268.453125 387.636875 -268.453125 386.976875 -268.453125 386.296875 C-269.113125 386.296875 -269.773125 386.296875 -270.453125 386.296875 C-270.453125 385.636875 -270.453125 384.976875 -270.453125 384.296875 C-271.113125 384.296875 -271.773125 384.296875 -272.453125 384.296875 C-285.6968782 369.32867477 -294.04236539 350.88192859 -297.453125 331.296875 C-297.73542969 329.91048828 -297.73542969 329.91048828 -298.0234375 328.49609375 C-301.9881265 298.97718198 -292.67293679 271.1212723 -275.93359375 247.02734375 C-275.44503906 246.45628906 -274.95648438 245.88523437 -274.453125 245.296875 C-273.793125 245.296875 -273.133125 245.296875 -272.453125 245.296875 C-272.22109375 244.73871094 -271.9890625 244.18054688 -271.75 243.60546875 C-264.68463499 231.02826779 -248.45963111 224.03471286 -236.453125 217.296875 C-234.40545526 216.13118888 -232.36033654 214.96117007 -230.31591797 213.78979492 C-228.72223 212.87921204 -227.12309142 211.97818603 -225.5234375 211.078125 C-222.52520624 209.33869313 -219.59418696 207.51893037 -216.66210938 205.67138672 C-214.28034241 204.18936329 -211.87541333 202.75107209 -209.46484375 201.31640625 C-195.31709654 192.83828648 -183.58352397 185.11037679 -175.453125 170.296875 C-174.98132813 169.4615625 -174.50953125 168.62625 -174.0234375 167.765625 C-168.28120047 157.02866108 -167.01861529 146.91139862 -167.046875 134.84765625 C-167.03760042 133.46354472 -167.02661589 132.07944373 -167.01403809 130.69535828 C-166.97761142 126.33337664 -166.96365565 121.97148593 -166.953125 117.609375 C-166.85251692 76.41557152 -164.84720831 40.74112417 -135.015625 9.609375 C-132.453125 7.296875 -132.453125 7.296875 -130.453125 7.296875 C-130.453125 6.636875 -130.453125 5.976875 -130.453125 5.296875 C-128.328125 3.52734375 -128.328125 3.52734375 -125.453125 1.484375 C-124.0609375 0.48470703 -124.0609375 0.48470703 -122.640625 -0.53515625 C-84.15508435 -26.71098353 -38.67857607 -25.51140124 0 0 Z M-93.453125 38.296875 C-94.88591797 39.08578125 -94.88591797 39.08578125 -96.34765625 39.890625 C-97.04246094 40.3546875 -97.73726562 40.81875 -98.453125 41.296875 C-98.453125 41.956875 -98.453125 42.616875 -98.453125 43.296875 C-99.113125 43.296875 -99.773125 43.296875 -100.453125 43.296875 C-100.453125 43.956875 -100.453125 44.616875 -100.453125 45.296875 C-101.113125 45.296875 -101.773125 45.296875 -102.453125 45.296875 C-111.67229754 55.34921441 -117.52371937 67.50655523 -117.61425781 81.29296875 C-117.62386536 82.47769775 -117.6334729 83.66242676 -117.64337158 84.88305664 C-117.64762146 86.1539917 -117.65187134 87.42492676 -117.65625 88.734375 C-117.66195007 90.04720459 -117.66765015 91.36003418 -117.67352295 92.71264648 C-117.68399999 95.4864948 -117.68986492 98.2603144 -117.69335938 101.03417969 C-117.69885307 104.58168489 -117.72291312 108.12880804 -117.75133133 111.67619324 C-117.77446561 115.07057985 -117.77640672 118.46491364 -117.78125 121.859375 C-117.7997702 123.76577759 -117.7997702 123.76577759 -117.81866455 125.71069336 C-117.8141629 127.48778687 -117.8141629 127.48778687 -117.80957031 129.30078125 C-117.81321594 130.34049072 -117.81686157 131.3802002 -117.82061768 132.45141602 C-117.39510889 135.74608791 -116.38367443 137.61853114 -114.453125 140.296875 C-111.23457275 142.62755077 -108.34821974 142.76428637 -104.453125 142.296875 C-96.4359349 138.20299069 -90.69019001 130.58097684 -87.453125 122.296875 C-86.26386867 118.55583322 -86.26261656 114.91086135 -86.171875 111.00390625 C-86.14426086 109.9457093 -86.14426086 109.9457093 -86.11608887 108.86613464 C-86.05754531 106.61396342 -86.00471452 104.36171554 -85.953125 102.109375 C-85.32035598 74.80864448 -85.32035598 74.80864448 -79.203125 67.671875 C-73.43750041 62.69247195 -67.66742022 59.8899933 -59.98828125 60.02734375 C-52.12864184 60.86296027 -46.79748753 64.1905905 -41.828125 70.19921875 C-38.26723295 75.63160235 -38.13315549 80.46251118 -38.1171875 86.77734375 C-38.1072023 88.16763542 -38.1072023 88.16763542 -38.09701538 89.58601379 C-38.08689905 91.55203273 -38.08219805 93.51808593 -38.08251953 95.48413086 C-38.07820539 98.42948857 -38.04204157 101.37327256 -38.00390625 104.31835938 C-37.91310887 119.23808497 -38.88374321 134.59820759 -46.328125 147.921875 C-46.67037109 148.5730127 -47.01261719 149.22415039 -47.36523438 149.89501953 C-49.67902252 154.19405513 -52.26854859 158.17368064 -55.421875 161.9140625 C-56.65239963 163.2765831 -56.65239963 163.2765831 -56.453125 165.296875 C-57.113125 165.296875 -57.773125 165.296875 -58.453125 165.296875 C-58.453125 165.956875 -58.453125 166.616875 -58.453125 167.296875 C-59.03707031 167.5546875 -59.62101563 167.8125 -60.22265625 168.078125 C-62.63553452 169.39654535 -64.18949685 170.86553517 -66.140625 172.796875 C-72.20054519 178.29956115 -79.21125601 182.04807593 -86.29394531 186.06201172 C-89.54536254 187.92154003 -92.74887275 189.85758342 -95.953125 191.796875 C-107.65300655 198.8401881 -119.43362165 205.73780101 -131.3046875 212.48828125 C-134.86249495 214.53203416 -138.3790971 216.63605571 -141.87890625 218.77734375 C-144.87181274 220.54402148 -147.90705577 222.22465922 -150.94799805 223.90698242 C-155.3804137 226.36617181 -159.79080222 228.86436782 -164.203125 231.359375 C-165.19884521 231.92229248 -166.19456543 232.48520996 -167.22045898 233.06518555 C-175.73801776 237.88455215 -184.23945954 242.73168589 -192.73046875 247.59765625 C-195.54901903 249.21202399 -198.37210635 250.81691721 -201.20703125 252.40234375 C-208.18777327 256.32547223 -215.03087495 260.43945899 -221.828125 264.671875 C-222.68035645 265.19652344 -223.53258789 265.72117187 -224.41064453 266.26171875 C-225.58796143 267.00228516 -225.58796143 267.00228516 -226.7890625 267.7578125 C-227.84939697 268.41982666 -227.84939697 268.41982666 -228.93115234 269.09521484 C-229.43340332 269.4917627 -229.9356543 269.88831055 -230.453125 270.296875 C-230.453125 270.956875 -230.453125 271.616875 -230.453125 272.296875 C-231.33871094 272.668125 -231.33871094 272.668125 -232.2421875 273.046875 C-240.39133652 277.65416773 -246.78239206 290.15154083 -249.328125 298.859375 C-252.56955366 313.85098255 -251.03959846 329.30423318 -243.2421875 342.6328125 C-234.69557234 355.35943158 -221.70621537 365.35100381 -206.63476562 368.90209961 C-189.75038718 371.95738609 -175.39450123 367.41625614 -160.98046875 358.93359375 C-154.86048015 355.33270876 -148.59192674 352.00313448 -142.34204102 348.63476562 C-137.85727996 346.20341236 -133.39420697 343.73506764 -128.9765625 341.18359375 C-127.78039307 340.49656372 -127.78039307 340.49656372 -126.56005859 339.7956543 C-123.6342741 337.71438072 -121.74609723 335.66163732 -120.984375 332.11328125 C-120.92595898 327.90002581 -121.00299407 325.90587567 -123.578125 322.421875 C-131.33603142 316.68777026 -138.978966 315.41107965 -148.453125 316.296875 C-156.4428257 318.30068172 -163.55155198 323.0546503 -170.59033203 327.20166016 C-173.76198396 329.06640859 -176.9506255 330.90125323 -180.140625 332.734375 C-181.27886719 333.39308594 -182.41710937 334.05179687 -183.58984375 334.73046875 C-189.96215052 338.21654653 -197.22813199 338.31466043 -204.2421875 336.625 C-206.34893979 335.91606113 -208.40725648 335.16481922 -210.453125 334.296875 C-210.453125 333.636875 -210.453125 332.976875 -210.453125 332.296875 C-211.030625 331.760625 -211.608125 331.224375 -212.203125 330.671875 C-217.04819883 325.5576304 -218.72402835 320.85796116 -218.953125 313.796875 C-218.68236087 306.24168225 -216.86040783 301.2885334 -211.328125 296.109375 C-207.9575502 293.45398519 -204.3790819 291.65781069 -200.5078125 289.83984375 C-197.37170187 288.25574695 -194.39944954 286.50282645 -191.39550781 284.68481445 C-169.38837214 271.38005504 -146.68073663 265.4531858 -121.234375 271.27734375 C-109.02297962 274.56987907 -98.78337186 280.90178789 -88.1015625 287.4609375 C-83.82840745 290.08438431 -79.4955646 292.5536051 -75.06713867 294.90625 C-66.38298859 299.52611727 -57.82411193 304.33998071 -49.328125 309.296875 C-48.30847656 309.88726562 -47.28882813 310.47765625 -46.23828125 311.0859375 C-40.82481158 314.24089928 -35.54736716 317.51271703 -30.36132812 321.02832031 C-28.06498199 322.55490866 -25.70621321 323.88986945 -23.265625 325.171875 C-13.36070927 330.47367637 -3.67286939 336.16512653 6.046875 341.796875 C16.84204063 348.05146237 16.84204063 348.05146237 27.67919922 354.23291016 C29.78868734 355.43462901 31.88790261 356.6535284 33.98828125 357.87109375 C46.07966056 364.8280729 55.99460079 369.5735648 70.171875 369.734375 C71.04303955 369.74484863 71.9142041 369.75532227 72.81176758 369.76611328 C86.97007994 369.57101053 100.59101276 362.88480841 110.8125 353.1875 C123.76197754 339.07140286 126.32270186 323.38860749 125.72167969 304.97412109 C125.38534927 299.82300467 124.01230251 295.782786 121.546875 291.296875 C121.04929687 290.30816406 120.55171875 289.31945312 120.0390625 288.30078125 C110.8506564 271.18470385 94.00282216 261.46730627 77.203125 252.6953125 C73.81376042 250.91091174 70.49443958 249.01457059 67.171875 247.109375 C66.02976562 246.45582031 64.88765625 245.80226563 63.7109375 245.12890625 C61.72704307 243.98020688 59.75899726 242.80318337 57.81640625 241.5859375 C54.7800124 239.8613076 52.99474877 239.8043216 49.546875 240.296875 C46.54001626 241.91595278 44.2887671 243.35264868 42.171875 246.046875 C40.08528275 253.55860708 42.0166812 260.54386576 45.546875 267.296875 C48.27194985 270.92224101 51.15542932 274.27861929 54.546875 277.296875 C55.206875 277.296875 55.866875 277.296875 56.546875 277.296875 C56.546875 277.956875 56.546875 278.616875 56.546875 279.296875 C57.69687988 279.90946167 57.69687988 279.90946167 58.87011719 280.53442383 C61.72669682 282.05812046 64.58164852 283.5848134 67.43554688 285.11352539 C68.66863103 285.77325129 69.90234802 286.43179581 71.13671875 287.08911133 C72.91574276 288.03672855 74.69227532 288.98901844 76.46875 289.94140625 C78.07121582 290.79762573 78.07121582 290.79762573 79.70605469 291.67114258 C82.546875 293.296875 82.546875 293.296875 84.80175781 295.0065918 C86.45318425 296.49504647 86.45318425 296.49504647 88.546875 296.296875 C88.546875 296.956875 88.546875 297.616875 88.546875 298.296875 C89.206875 298.296875 89.866875 298.296875 90.546875 298.296875 C93.81562165 307.09136003 95.49267463 316.17429621 91.984375 325.171875 C89.19351763 330.60566444 85.20594078 333.96734211 79.796875 336.671875 C71.01416716 338.36085728 64.33083629 337.60976614 56.546875 333.296875 C55.67023193 332.82169434 55.67023193 332.82169434 54.77587891 332.33691406 C46.84191044 328.0308629 39.10074373 323.51780568 31.5859375 318.51171875 C29.65610046 317.12626466 29.65610046 317.12626466 27.546875 317.296875 C27.546875 316.636875 27.546875 315.976875 27.546875 315.296875 C25.82727772 313.8305693 25.82727772 313.8305693 23.609375 312.296875 C12.11915102 303.56646934 4.08617344 292.31099628 -0.765625 278.796875 C-1.00821045 278.12132568 -1.2507959 277.44577637 -1.50073242 276.74975586 C-5.45083658 265.04465754 -5.73536589 253.50973551 -5.69262695 241.2878418 C-5.69374168 239.4862968 -5.69580236 237.68475219 -5.69873047 235.88320923 C-5.70343073 232.02228956 -5.70235556 228.16143085 -5.69695473 224.30051231 C-5.68930468 218.18384343 -5.70004579 212.06729027 -5.7141571 205.95063782 C-5.75178194 188.56352261 -5.77009882 171.1764608 -5.75854492 153.78930664 C-5.75231192 144.17207196 -5.76399078 134.55502543 -5.79499024 124.93783695 C-5.81355294 118.86924748 -5.81041429 112.80119482 -5.79082263 106.73261487 C-5.78389736 102.94277084 -5.79798271 99.15321221 -5.81777191 95.36342239 C-5.82278076 93.61967221 -5.81943495 91.87587252 -5.80663872 90.13216209 C-5.7097949 75.91349766 -8.62562924 64.94038566 -15.453125 52.296875 C-16.113125 52.296875 -16.773125 52.296875 -17.453125 52.296875 C-18.443125 49.821875 -18.443125 49.821875 -19.453125 47.296875 C-20.113125 47.296875 -20.773125 47.296875 -21.453125 47.296875 C-21.453125 46.636875 -21.453125 45.976875 -21.453125 45.296875 C-22.113125 45.296875 -22.773125 45.296875 -23.453125 45.296875 C-23.453125 44.636875 -23.453125 43.976875 -23.453125 43.296875 C-45.00507088 25.54821368 -69.77105271 24.67581381 -93.453125 38.296875 Z " fill="#3C966E" transform="translate(313.453125,52.703125)"/>
<path d="M0 0 C0.33 0.66 0.66 1.32 1 2 C1.66 2 2.32 2 3 2 C3 10.91 3 19.82 3 29 C2.01 29 1.02 29 0 29 C0 21.41 0 13.82 0 6 C-0.99 6.495 -0.99 6.495 -2 7 C-2 5.68 -2 4.36 -2 3 C-1.34 3 -0.68 3 0 3 C0 2.01 0 1.02 0 0 Z " fill="#3B7D62" transform="translate(484,351)"/>
<path d="M0 0 C0.66 0.33 1.32 0.66 2 1 C1.34 2.32 0.68 3.64 0 5 C-0.66 5 -1.32 5 -2 5 C-2.33 5.99 -2.66 6.98 -3 8 C-3.66 8 -4.32 8 -5 8 C-5.66 9.98 -6.32 11.96 -7 14 C-6.34 14.33 -5.68 14.66 -5 15 C-5.66 15.66 -6.32 16.32 -7 17 C-7.66 17 -8.32 17 -9 17 C-9.99 17.33 -10.98 17.66 -12 18 C-12.66 17.34 -13.32 16.68 -14 16 C-9.59802297 10.34669955 -5.19861358 4.9386829 0 0 Z " fill="#3A8866" transform="translate(181,60)"/>
<path d="M0 0 C-4.92550645 4.92550645 -13.64387592 4.17121213 -20.1953125 4.1953125 C-23.17216901 4.18959463 -26.14835171 4.1589128 -29.125 4.125 C-30.66926501 4.11494704 -32.21353638 4.10582529 -33.7578125 4.09765625 C-37.50534249 4.07583336 -41.25262946 4.04143206 -45 4 C-45 3.67 -45 3.34 -45 3 C-44.06615479 2.97494385 -43.13230957 2.9498877 -42.17016602 2.92407227 C-38.71674811 2.82913072 -35.2635104 2.72988742 -31.81030273 2.62768555 C-30.31360731 2.58428187 -28.81686061 2.54261087 -27.32006836 2.50268555 C-25.17285688 2.44511384 -23.02590479 2.38138284 -20.87890625 2.31640625 C-19.5854126 2.27974854 -18.29191895 2.24309082 -16.95922852 2.20532227 C-14.11444992 2.3332722 -14.11444992 2.3332722 -13 1 C-8.62311835 0.22760912 -4.44088235 -0.1083142 0 0 Z " fill="#275943" transform="translate(147,466)"/>
<path d="M0 0 C-0.3125 2.375 -0.3125 2.375 -1 5 C-4 7 -4 7 -6 7 C-7.28949167 8.79526111 -7.28949167 8.79526111 -8.5 11 C-9.78125 13.25 -9.78125 13.25 -11 15 C-11.66 15 -12.32 15 -13 15 C-13.33 15.99 -13.66 16.98 -14 18 C-14.66 17.34 -15.32 16.68 -16 16 C-15.21654285 14.82780457 -14.42297164 13.66236332 -13.625 12.5 C-13.18414062 11.8503125 -12.74328125 11.200625 -12.2890625 10.53125 C-11.65097656 9.77328125 -11.65097656 9.77328125 -11 9 C-10.34 9 -9.68 9 -9 9 C-8.773125 8.443125 -8.54625 7.88625 -8.3125 7.3125 C-6.49644015 4.11277551 -3.9498923 0 0 0 Z " fill="#346C51" transform="translate(50,289)"/>
<path d="M0 0 C0.66 0 1.32 0 2 0 C0.81070529 3.56788413 0.16026729 3.75985607 -3.03515625 5.48046875 C-3.84404297 5.92197266 -4.65292969 6.36347656 -5.48632812 6.81835938 C-6.33646484 7.27017578 -7.18660156 7.72199219 -8.0625 8.1875 C-8.91650391 8.65091797 -9.77050781 9.11433594 -10.65039062 9.59179688 C-12.76252727 10.73636254 -14.87901067 11.87194884 -17 13 C-17.33 12.01 -17.66 11.02 -18 10 C-16 8 -16 8 -13 7 C-13.33 6.34 -13.66 5.68 -14 5 C-11.69 5.33 -9.38 5.66 -7 6 C-7.33 5.01 -7.66 4.02 -8 3 C-7.01 3 -6.02 3 -5 3 C-3.32900023 2.68911632 -1.66128463 2.35919668 0 2 C0 1.34 0 0.68 0 0 Z " fill="#306B51" transform="translate(161,275)"/>
<path d="M0 0 C0.33 0.66 0.66 1.32 1 2 C0.07161713 3.31896465 -0.86805732 4.62998689 -1.8125 5.9375 C-2.33457031 6.66839844 -2.85664063 7.39929688 -3.39453125 8.15234375 C-5 10 -5 10 -8 11 C-8.639375 11.639375 -9.27875 12.27875 -9.9375 12.9375 C-11.94775378 14.94775378 -13.32584243 16.08075833 -16 17 C-17.34364362 16.71101782 -18.67986936 16.38228783 -20 16 C-19.27554687 15.55269531 -18.55109375 15.10539062 -17.8046875 14.64453125 C-7.79526134 8.57238406 -7.79526134 8.57238406 0 0 Z " fill="#397258" transform="translate(428,400)"/>
<path d="M0 0 C2.64 0.33 5.28 0.66 8 1 C8.33 1.99 8.66 2.98 9 4 C9.66 4 10.32 4 11 4 C11 4.66 11 5.32 11 6 C11.99 5.67 12.98 5.34 14 5 C14 5.66 14 6.32 14 7 C14.99 7 15.98 7 17 7 C17.33 7.66 17.66 8.32 18 9 C20.52733235 9.65555119 20.52733235 9.65555119 23 10 C21.28417969 11.13598633 21.28417969 11.13598633 19 12 C16.80175781 11.2331543 16.80175781 11.2331543 14.453125 9.82421875 C13.60878906 9.32599609 12.76445312 8.82777344 11.89453125 8.31445312 C10.58548828 7.50911133 10.58548828 7.50911133 9.25 6.6875 C8.36183594 6.16220703 7.47367187 5.63691406 6.55859375 5.09570312 C1.92981422 2.3262567 1.92981422 2.3262567 0 1 C0 0.67 0 0.34 0 0 Z " fill="#336E54" transform="translate(290,432)"/>
<path d="M0 0 C3.715124 2.31024517 4.85930997 4.39415325 6.25 8.5 C6.58515625 9.4590625 6.9203125 10.418125 7.265625 11.40625 C8 14 8 14 8 17 C7.01 17 6.02 17 5 17 C4.73445313 16.21753906 4.46890625 15.43507813 4.1953125 14.62890625 C3.84210938 13.61699219 3.48890625 12.60507812 3.125 11.5625 C2.77695312 10.55316406 2.42890625 9.54382813 2.0703125 8.50390625 C1.25944907 5.86028249 1.25944907 5.86028249 -1 5 C-0.67 3.35 -0.34 1.7 0 0 Z " fill="#3D7E62" transform="translate(474,319)"/>
<path d="M0 0 C0.99 0.33 1.98 0.66 3 1 C2.51781006 1.99906372 2.51781006 1.99906372 2.02587891 3.01831055 C0.79013652 6.60996257 0.64825122 9.95226317 0.5859375 13.70703125 C0.56657135 14.43242599 0.5472052 15.15782074 0.5272522 15.90519714 C0.46777892 18.20751422 0.42120155 20.50988219 0.375 22.8125 C0.33679042 24.37957832 0.29773697 25.94663631 0.2578125 27.51367188 C0.16210437 31.34228152 0.07795552 35.17098942 0 39 C-0.33 39 -0.66 39 -1 39 C-1.02464849 33.60653012 -1.04283531 28.21309275 -1.05493164 22.81958008 C-1.05997231 20.98331125 -1.06680477 19.14704646 -1.07543945 17.31079102 C-1.08751672 14.67723599 -1.09323081 12.04373384 -1.09765625 9.41015625 C-1.10281754 8.58411392 -1.10797882 7.75807159 -1.11329651 6.90699768 C-1.11349205 4.93763632 -1.06204152 2.96838386 -1 1 C-0.67 0.67 -0.34 0.34 0 0 Z " fill="#489775" transform="translate(229,130)"/>
<path d="M0 0 C0.66 0.33 1.32 0.66 2 1 C-0.46184005 3.75098234 -3.15733142 5.4023551 -6.375 7.1875 C-7.31085938 7.71730469 -8.24671875 8.24710937 -9.2109375 8.79296875 C-12.0814008 10.03522808 -13.91415239 10.25247844 -17 10 C-14.27068207 6.73690403 -10.67833428 5.09948674 -6.9375 3.25 C-6.30005859 2.92128906 -5.66261719 2.59257812 -5.00585938 2.25390625 C-3.36875018 1.43621419 -1.68639678 0.71050174 0 0 Z " fill="#347356" transform="translate(140,327)"/>
<path d="M0 0 C7.54814253 2.97952995 7.54814253 2.97952995 10 8 C9.58203125 10.16796875 9.58203125 10.16796875 9 12 C7.49105554 10.57189185 5.99307655 9.13218981 4.5 7.6875 C3.6646875 6.88699219 2.829375 6.08648437 1.96875 5.26171875 C0 3 0 3 0 0 Z " fill="#347455" transform="translate(326,353)"/>
<path d="M0 0 C-3.47281559 0.9849372 -5.46153015 0.72377792 -9 0 C-14.16242579 -0.16652986 -18.9114738 0.1519123 -24 1 C-23 -1 -23 -1 -20.5 -2.125 C-12.87191775 -4.03202056 -7.14295213 -3.11692457 0 0 Z " fill="#2E6147" transform="translate(264,115)"/>
<path d="M0 0 C1.98 1.32 3.96 2.64 6 4 C5.67 5.32 5.34 6.64 5 8 C1.94736336 8.98120464 0.05263664 8.98120464 -3 8 C-2.690625 7.236875 -2.38125 6.47375 -2.0625 5.6875 C-1.32106407 3.81210323 -0.63771783 1.91315348 0 0 Z " fill="#388362" transform="translate(364,326)"/>
<path d="M0 0 C1.32 0.33 2.64 0.66 4 1 C3.67 2.32 3.34 3.64 3 5 C2.01 5 1.02 5 0 5 C0 5.66 0 6.32 0 7 C-0.66 7 -1.32 7 -2 7 C-2 7.66 -2 8.32 -2 9 C-2.66 9 -3.32 9 -4 9 C-4.33 9.66 -4.66 10.32 -5 11 C-5.20140476 7.37471432 -4.85776765 5.13498292 -3 2 C-2.01 2 -1.02 2 0 2 C0 1.34 0 0.68 0 0 Z M1 1 C2 3 2 3 2 3 Z " fill="#3B8465" transform="translate(215,89)"/>
<path d="M0 0 C0 0.66 0 1.32 0 2 C-0.99 2 -1.98 2 -3 2 C-3 2.66 -3 3.32 -3 4 C-7.29 5.65 -11.58 7.3 -16 9 C-16.66 8.34 -17.32 7.68 -18 7 C-15.56568361 5.82625827 -13.12795818 4.66084237 -10.6875 3.5 C-9.99720703 3.16613281 -9.30691406 2.83226562 -8.59570312 2.48828125 C-3.33984375 0 -3.33984375 0 0 0 Z " fill="#377257" transform="translate(218,39)"/>
<path d="M0 0 C3.12671475 4.69007212 2.5831135 9.50788451 2 15 C0.97080541 18.19497798 -0.34900175 21.08127095 -2 24 C-3.09898702 20.70303895 -2.87124444 19.59505097 -2.0625 16.3125 C-1.86785156 15.50425781 -1.67320312 14.69601562 -1.47265625 13.86328125 C-1.23869141 12.94095703 -1.23869141 12.94095703 -1 12 C-0.67 12 -0.34 12 0 12 C0.33 9.36 0.66 6.72 1 4 C0.34 4 -0.32 4 -1 4 C-0.67 2.68 -0.34 1.36 0 0 Z " fill="#2D604A" transform="translate(406,358)"/>
<path d="M0 0 C0.99 0.33 1.98 0.66 3 1 C0.51259818 3.78992366 -2.24218857 5.44594313 -5.5 7.25 C-6.93859375 8.06210937 -6.93859375 8.06210937 -8.40625 8.890625 C-11 10 -11 10 -14 9 C-13.67 8.34 -13.34 7.68 -13 7 C-10.67843403 6.59270772 -8.3431213 6.25561323 -6 6 C-5.67 5.01 -5.34 4.02 -5 3 C-3.35 2.67 -1.7 2.34 0 2 C0 1.34 0 0.68 0 0 Z " fill="#336750" transform="translate(138,380)"/>
<path d="M0 0 C0.99 0.33 1.98 0.66 3 1 C3 1.66 3 2.32 3 3 C4.65 3 6.3 3 8 3 C8.33 4.65 8.66 6.3 9 8 C5.2089881 6.55049545 1.6125362 4.84827434 -2 3 C-2 2.34 -2 1.68 -2 1 C-1.34 0.67 -0.68 0.34 0 0 Z " fill="#387659" transform="translate(381,297)"/>
<path d="M0 0 C2.10353495 -0.0810206 4.20795952 -0.13919907 6.3125 -0.1875 C7.48425781 -0.22230469 8.65601563 -0.25710938 9.86328125 -0.29296875 C13 0 13 0 14.91796875 1.51171875 C15.27503906 2.00285156 15.63210938 2.49398438 16 3 C13.51979503 2.88658509 11.04155031 2.75985314 8.5625 2.625 C7.85544922 2.5940625 7.14839844 2.563125 6.41992188 2.53125 C4.60760812 2.42719371 2.80182012 2.22080108 1 2 C0.67 1.34 0.34 0.68 0 0 Z " fill="#356F54" transform="translate(254,419)"/>
<path d="M0 0 C1.11139547 3.78194286 0.82409361 5.43867437 -1 9 C-2.28667172 10.70294787 -3.61096733 12.37946188 -5 14 C-6 11 -6 11 -4.78515625 8.30078125 C-4.21667969 7.31464844 -3.64820313 6.32851563 -3.0625 5.3125 C-2.49660156 4.31863281 -1.93070313 3.32476562 -1.34765625 2.30078125 C-0.90292969 1.54152344 -0.45820313 0.78226562 0 0 Z " fill="#347256" transform="translate(31,310)"/>
<path d="M0 0 C0 0.66 0 1.32 0 2 C-2.61373889 4.53906064 -4.12889581 5.92256852 -7.8125 6.25 C-8.8953125 6.12625 -8.8953125 6.12625 -10 6 C-10 6.66 -10 7.32 -10 8 C-11.65 8.33 -13.3 8.66 -15 9 C-11.6214602 5.03388806 -5.46055995 0 0 0 Z " fill="#336A51" transform="translate(79,270)"/>
<path d="M0 0 C0.33 0 0.66 0 1 0 C1.33 6.93 1.66 13.86 2 21 C1.01 21.33 0.02 21.66 -1 22 C-0.67 14.74 -0.34 7.48 0 0 Z " fill="#23553D" transform="translate(439,359)"/>
<path d="M0 0 C1.15224028 0.92961422 2.29659176 1.8690125 3.4375 2.8125 C4.07558594 3.33457031 4.71367187 3.85664062 5.37109375 4.39453125 C7 6 7 6 8 9 C5.125 8.75 5.125 8.75 2 8 C-0.16898181 5.14088761 0 3.71556422 0 0 Z " fill="#347854" transform="translate(323,62)"/>
<path d="M0 0 C-5.94 3.465 -5.94 3.465 -12 7 C-12.33 5.68 -12.66 4.36 -13 3 C-11.02 2.67 -9.04 2.34 -7 2 C-7 1.34 -7 0.68 -7 0 C-4 -1 -4 -1 0 0 Z " fill="#2E644E" transform="translate(132,295)"/>
<path d="M0 0 C0.33 0.99 0.66 1.98 1 3 C0.34 3 -0.32 3 -1 3 C-1.33 4.98 -1.66 6.96 -2 9 C-3.65 9 -5.3 9 -7 9 C-5.44499019 5.18315774 -2.96404505 2.80804268 0 0 Z " fill="#347055" transform="translate(237,117)"/>
<path d="M0 0 C0.66 0 1.32 0 2 0 C2 0.66 2 1.32 2 2 C3.65 2 5.3 2 7 2 C7 2.66 7 3.32 7 4 C7.99 4 8.98 4 10 4 C10 4.66 10 5.32 10 6 C10.99 6.33 11.98 6.66 13 7 C7.94744036 6.36843005 3.70406799 4.86540627 -1 3 C-0.67 2.01 -0.34 1.02 0 0 Z " fill="#316F53" transform="translate(77,459)"/>
<path d="M0 0 C4.95 0 9.9 0 15 0 C14.01 0.495 14.01 0.495 13 1 C13 1.66 13 2.32 13 3 C11.20906809 3.08086147 9.41710372 3.13912702 7.625 3.1875 C6.12839844 3.23970703 6.12839844 3.23970703 4.6015625 3.29296875 C3.74304688 3.19628906 2.88453125 3.09960938 2 3 C1.34 2.01 0.68 1.02 0 0 Z " fill="#2F664E" transform="translate(377,388)"/>
<path d="M0 0 C2 1.5625 2 1.5625 3 3 C2.01 3.495 2.01 3.495 1 4 C0.4225 3.690625 -0.155 3.38125 -0.75 3.0625 C-4.61471643 1.23749502 -8.02868062 1.67622687 -12 3 C-12 2.01 -12 1.02 -12 0 C-8.03787867 -1.4857955 -4.03140467 -1.00143173 0 0 Z " fill="#3A785D" transform="translate(372,292)"/>
<path d="M0 0 C0.33 0 0.66 0 1 0 C1.20496094 0.83144531 1.40992188 1.66289062 1.62109375 2.51953125 C1.89050781 3.60621094 2.15992188 4.69289062 2.4375 5.8125 C2.83775391 7.43091797 2.83775391 7.43091797 3.24609375 9.08203125 C3.76077412 11.0740843 4.34937175 13.04811524 5 15 C4.01 15.33 3.02 15.66 2 16 C0.40837921 10.42932723 -0.20674944 5.78898419 0 0 Z " fill="#2F644E" transform="translate(356,204)"/>
<path d="M0 0 C3.53586014 3.17320782 5.58578031 5.16743695 6 10 C4 9 4 9 3 6 C2.34 5.67 1.68 5.34 1 5 C0.67 5.66 0.34 6.32 0 7 C-0.99 7 -1.98 7 -3 7 C-2.67 6.01 -2.34 5.02 -2 4 C-1.34 4 -0.68 4 0 4 C0 2.68 0 1.36 0 0 Z " fill="#38795C" transform="translate(269,120)"/>
<path d="M0 0 C0.66 0.33 1.32 0.66 2 1 C1.34 2.32 0.68 3.64 0 5 C-0.66 5 -1.32 5 -2 5 C-2.33 5.99 -2.66 6.98 -3 8 C-4.65 8.33 -6.3 8.66 -8 9 C-7.04270084 7.87411986 -6.08412105 6.7493285 -5.125 5.625 C-4.59132812 4.99851562 -4.05765625 4.37203125 -3.5078125 3.7265625 C-2.38567993 2.44163349 -1.20628025 1.20628025 0 0 Z " fill="#2E674C" transform="translate(181,60)"/>
<path d="M0 0 C3.59391114 1.33488128 6.75490696 2.96022723 10 5 C8.68 5.99 7.36 6.98 6 8 C6 7.01 6 6.02 6 5 C4.35 4.67 2.7 4.34 1 4 C0.67 2.68 0.34 1.36 0 0 Z " fill="#336A51" transform="translate(218,336)"/>
<path d="M0 0 C-6.36363636 5 -6.36363636 5 -11 5 C-11 4.34 -11 3.68 -11 3 C-10.34 3 -9.68 3 -9 3 C-9 2.34 -9 1.68 -9 1 C-5.8035914 -0.06546953 -3.34252724 -0.07427838 0 0 Z " fill="#336A50" transform="translate(165,459)"/>
<path d="M0 0 C4.30764815 1.56641751 8.06171464 3.68336156 12 6 C8.37673261 7.2077558 7.35853631 6.54311128 4 5 C4 4.34 4 3.68 4 3 C2.68 2.67 1.36 2.34 0 2 C0 1.34 0 0.68 0 0 Z " fill="#337151" transform="translate(206,329)"/>
<path d="M0 0 C1.32 0.33 2.64 0.66 4 1 C4 1.99 4 2.98 4 4 C0.04 5.98 0.04 5.98 -4 8 C-3.67 6.35 -3.34 4.7 -3 3 C-1.68 2.67 -0.36 2.34 1 2 C0.67 1.34 0.34 0.68 0 0 Z " fill="#387B5C" transform="translate(147,280)"/>
<path d="M0 0 C1.98 0 3.96 0 6 0 C2.80009492 2.74277578 -0.00499382 4.6302836 -4 6 C-4.33 5.01 -4.66 4.02 -5 3 C-4.360625 2.87625 -3.72125 2.7525 -3.0625 2.625 C-2.0415625 2.315625 -2.0415625 2.315625 -1 2 C-0.67 1.34 -0.34 0.68 0 0 Z " fill="#3B785B" transform="translate(192,440)"/>
<path d="M0 0 C0.33 0 0.66 0 1 0 C0.88570603 1.77155654 0.75816963 3.54226229 0.625 5.3125 C0.52058594 6.79169922 0.52058594 6.79169922 0.4140625 8.30078125 C0 11 0 11 -2 14 C-3.2380014 10.42355152 -2.74926071 7.66305234 -2 4 C-1.34 4 -0.68 4 0 4 C0 2.68 0 1.36 0 0 Z " fill="#2E6E4F" transform="translate(485,380)"/>
<path d="M0 0 C0.33 0 0.66 0 1 0 C1.21192221 5.19209404 0.5912689 9.126739 -1 14 C-1.33 14 -1.66 14 -2 14 C-2 10.7 -2 7.4 -2 4 C-1.34 4 -0.68 4 0 4 C0 2.68 0 1.36 0 0 Z " fill="#2E654D" transform="translate(273,178)"/>
<path d="M0 0 C3.96 1.98 3.96 1.98 8 4 C8 4.33 8 4.66 8 5 C5.03 4.67 2.06 4.34 -1 4 C-0.67 2.68 -0.34 1.36 0 0 Z " fill="#35765A" transform="translate(300,383)"/>
<path d="M0 0 C2.79872437 2.52788007 4.45773019 4.20411134 5 8 C4.01 8 3.02 8 2 8 C0.25 5.6875 0.25 5.6875 -1 3 C-0.67 2.01 -0.34 1.02 0 0 Z " fill="#316D55" transform="translate(468,307)"/>
<path d="M0 0 C3.37503669 1.1858237 5.64722731 2.27573689 8 5 C5.125 5.125 5.125 5.125 2 5 C1.34 4.34 0.68 3.68 0 3 C0 2.01 0 1.02 0 0 Z " fill="#38795D" transform="translate(401,257)"/>
<path d="M0 0 C2 1 2 1 3.125 4.0625 C3.41375 5.031875 3.7025 6.00125 4 7 C2.125 7.625 2.125 7.625 0 8 C-0.66 7.34 -1.32 6.68 -2 6 C-1.34 5.34 -0.68 4.68 0 4 C0 2.68 0 1.36 0 0 Z " fill="#347B5F" transform="translate(68,391)"/>
<path d="M0 0 C0.99 0.66 1.98 1.32 3 2 C0.31158141 4.25245881 -1.64641875 5.88213958 -5 7 C-3.70700306 4.11562221 -2.34058637 2.12780579 0 0 Z " fill="#357559" transform="translate(103,347)"/>
<path d="M0 0 C0.66 0.33 1.32 0.66 2 1 C-1.07999946 4.67230705 -3.2482602 5.56802365 -8 6 C-5.54080489 3.3651481 -3.42227589 1.25483449 0 0 Z " fill="#32644D" transform="translate(121,337)"/>
<path d="M0 0 C-0.99 0 -1.98 0 -3 0 C-3.66 1.32 -4.32 2.64 -5 4 C-7.475 3.01 -7.475 3.01 -10 2 C-6.80505194 -1.19494806 -4.22040044 -1.35655728 0 0 Z " fill="#30664C" transform="translate(155,324)"/>
<path d="M0 0 C1.52299523 2.93720508 2.80100302 5.9168649 4 9 C2.02 8.34 0.04 7.68 -2 7 C-2 6.01 -2 5.02 -2 4 C-1.34 4 -0.68 4 0 4 C0 2.68 0 1.36 0 0 Z " fill="#306E51" transform="translate(356,312)"/>
<path d="M0 0 C-0.3125 2.375 -0.3125 2.375 -1 5 C-1.99 5.66 -2.98 6.32 -4 7 C-4.6875 5.1875 -4.6875 5.1875 -5 3 C-3.38441968 0.84589291 -2.74502455 0 0 0 Z " fill="#377D61" transform="translate(50,289)"/>
<path d="M0 0 C0.66 0.33 1.32 0.66 2 1 C2.625 3.0625 2.625 3.0625 3 5 C2.34 5 1.68 5 1 5 C0.67 5.66 0.34 6.32 0 7 C0 6.01 0 5.02 0 4 C-1.32 3.67 -2.64 3.34 -4 3 C-2.68 2.01 -1.36 1.02 0 0 Z " fill="#307656" transform="translate(185,392)"/>
<path d="M0 0 C1.125 3.25 1.125 3.25 2 7 C1.34 8.32 0.68 9.64 0 11 C-0.99 7.7 -1.98 4.4 -3 1 C-1 0 -1 0 0 0 Z " fill="#306E54" transform="translate(437,341)"/>
<path d="M0 0 C1.32 0.66 2.64 1.32 4 2 C4 2.66 4 3.32 4 4 C3.34 4 2.68 4 2 4 C2 4.66 2 5.32 2 6 C1.34 6 0.68 6 0 6 C-0.33 6.66 -0.66 7.32 -1 8 C-1.08226668 4.95613276 -0.97608217 2.92824652 0 0 Z " fill="#387257" transform="translate(211,92)"/>
<path d="M0 0 C-0.66 1.32 -1.32 2.64 -2 4 C-2.99 3.67 -3.98 3.34 -5 3 C-5.33 3.66 -5.66 4.32 -6 5 C-6.99 4.67 -7.98 4.34 -9 4 C-3.375 0 -3.375 0 0 0 Z " fill="#327256" transform="translate(158,409)"/>
<path d="M0 0 C2.78388975 1.70625501 3.85384206 2.47626739 4.75 5.6875 C4.8325 6.450625 4.915 7.21375 5 8 C4.566875 7.505 4.13375 7.01 3.6875 6.5 C2.00259517 4.66781808 2.00259517 4.66781808 -1 5 C-0.67 3.35 -0.34 1.7 0 0 Z " fill="#36775C" transform="translate(474,319)"/>
<path d="M0 0 C0.33 0.66 0.66 1.32 1 2 C0.34 2 -0.32 2 -1 2 C-1.33 2.99 -1.66 3.98 -2 5 C-3.98 5.33 -5.96 5.66 -8 6 C-5.63379989 3.38472619 -3.057952 1.73559438 0 0 Z " fill="#32684E" transform="translate(199,47)"/>
<path d="M0 0 C0.99 0.66 1.98 1.32 3 2 C0.6875 3.5625 0.6875 3.5625 -2 5 C-2.99 4.67 -3.98 4.34 -5 4 C-5 3.34 -5 2.68 -5 2 C-2.6875 0.875 -2.6875 0.875 0 0 Z " fill="#346C54" transform="translate(185,445)"/>
<path d="M0 0 C2.475 0.495 2.475 0.495 5 1 C5.66 2.98 6.32 4.96 7 7 C6.34 7 5.68 7 5 7 C5 6.34 5 5.68 5 5 C4.34 5 3.68 5 3 5 C1.375 2.5 1.375 2.5 0 0 Z " fill="#336B53" transform="translate(38,432)"/>
<path d="M0 0 C2.9719385 1.12451727 5.33440687 2.22293791 8 4 C4.98968256 4.93423645 4.13349732 5.04449911 1 4 C0.3125 1.9375 0.3125 1.9375 0 0 Z " fill="#397556" transform="translate(91,415)"/>
<path d="M0 0 C1.4835001 0.42257276 2.96176424 0.86356322 4.4375 1.3125 C5.67306641 1.67794922 5.67306641 1.67794922 6.93359375 2.05078125 C7.61550781 2.36402344 8.29742187 2.67726563 9 3 C9.33 3.99 9.66 4.98 10 6 C6.40992874 4.66654496 3.20429093 3.1056769 0 1 C0 0.67 0 0.34 0 0 Z " fill="#275744" transform="translate(395,308)"/>
<path d="M0 0 C0.66 0 1.32 0 2 0 C2 1.98 2 3.96 2 6 C0.02 6.99 0.02 6.99 -2 8 C-1.34 5.36 -0.68 2.72 0 0 Z " fill="#316D51" transform="translate(226,171)"/>
<path d="M0 0 C0 0.66 0 1.32 0 2 C-0.99 2 -1.98 2 -3 2 C-3 2.66 -3 3.32 -3 4 C-4.98 4 -6.96 4 -9 4 C-8 2 -8 2 -5.625 0.875 C-3 0 -3 0 0 0 Z " fill="#2E624B" transform="translate(218,39)"/>
<path d="M0 0 C0.598125 0.350625 1.19625 0.70125 1.8125 1.0625 C-1.6525 2.5475 -1.6525 2.5475 -5.1875 4.0625 C-5.1875 2.7425 -5.1875 1.4225 -5.1875 0.0625 C-2.1875 -0.9375 -2.1875 -0.9375 0 0 Z " fill="#317157" transform="translate(176.1875,451.9375)"/>
<path d="M0 0 C4.75 0.75 4.75 0.75 7 3 C6.67 3.99 6.34 4.98 6 6 C4 4.625 4 4.625 2 3 C2 2.34 2 1.68 2 1 C1.34 0.67 0.68 0.34 0 0 Z " fill="#397057" transform="translate(45,440)"/>
<path d="M0 0 C0.99 0.33 1.98 0.66 3 1 C3 1.66 3 2.32 3 3 C0.625 4.6875 0.625 4.6875 -2 6 C-2.66 5.67 -3.32 5.34 -4 5 C-3.67 4.34 -3.34 3.68 -3 3 C-2.01 3 -1.02 3 0 3 C0 2.01 0 1.02 0 0 Z " fill="#316B4F" transform="translate(204,433)"/>
<path d="M0 0 C-0.66 1.32 -1.32 2.64 -2 4 C-3.98 4 -5.96 4 -8 4 C-5.29881977 1.17603885 -4.05589853 0 0 0 Z " fill="#347659" transform="translate(113,343)"/>
<path d="M0 0 C3.96 1.98 3.96 1.98 8 4 C8 4.33 8 4.66 8 5 C3.48279689 5.36625971 3.48279689 5.36625971 1.1875 3.625 C0 2 0 2 0 0 Z " fill="#366B54" transform="translate(415,265)"/>
<path d="M0 0 C0.66 0.33 1.32 0.66 2 1 C1.67 1.66 1.34 2.32 1 3 C0.34 3 -0.32 3 -1 3 C-1 3.66 -1 4.32 -1 5 C-2.65 5 -4.3 5 -6 5 C-2.25 1.125 -2.25 1.125 0 0 Z " fill="#2A6047" transform="translate(117,246)"/>
</svg>
